<svg xmlns="http://www.w3.org/2000/svg" width="192" height="192" viewBox="0 0 192 192">
  <rect width="192" height="192" rx="32" fill="#f0ebe0"/>
  <circle cx="96" cy="96" r="52" fill="#8b6f3a"/>
  <circle cx="96" cy="96" r="22" fill="#f0ebe0"/>
  <rect x="36" y="118" width="12" height="28" rx="3" fill="#f0ebe0"/>
  <rect x="53" y="118" width="12" height="28" rx="3" fill="#f0ebe0"/>
  <rect x="70" y="118" width="12" height="28" rx="3" fill="#f0ebe0"/>
  <rect x="87" y="118" width="12" height="28" rx="3" fill="#f0ebe0"/>
  <rect x="104" y="118" width="12" height="28" rx="3" fill="#f0ebe0"/>
  <rect x="121" y="118" width="12" height="28" rx="3" fill="#f0ebe0"/>
  <rect x="138" y="118" width="12" height="28" rx="3" fill="#f0ebe0"/>
  <rect x="46" y="118" width="8" height="18" rx="2" fill="#1c1a18"/>
  <rect x="63" y="118" width="8" height="18" rx="2" fill="#1c1a18"/>
  <rect x="97" y="118" width="8" height="18" rx="2" fill="#1c1a18"/>
  <rect x="114" y="118" width="8" height="18" rx="2" fill="#1c1a18"/>
  <rect x="131" y="118" width="8" height="18" rx="2" fill="#1c1a18"/>
</svg>
